<?xml version="1.0" encoding="UTF-8" standalone="no"?>
<!-- Created with Inkscape (http://www.inkscape.org/) -->

<svg
   width="52.700016"
   height="59.697823"
   viewBox="0 0 13.943546 15.79505"
   version="1.1"
   id="svg1"
   xml:space="preserve"
   xmlns="http://www.w3.org/2000/svg"
   xmlns:svg="http://www.w3.org/2000/svg"><defs
     id="defs1" /><g
     id="layer1"
     transform="translate(0.75775961,-104.4868)"><g
       id="g2"><rect
         style="opacity:0.986891;fill:#f9f9f9;fill-opacity:1;fill-rule:evenodd;stroke:#000000;stroke-width:0;stroke-linecap:round;stroke-dasharray:none;paint-order:stroke fill markers"
         id="rect1"
         width="7.0627675"
         height="3.9742019"
         x="24.127823"
         y="91.354492"
         ry="0.036241759"
         transform="matrix(0.81101807,0.5850211,-0.14012993,0.99013312,0,0)" /><rect
         style="opacity:0.986891;fill:#f9f9f9;fill-opacity:1;fill-rule:evenodd;stroke:#000000;stroke-width:0;stroke-linecap:round;stroke-dasharray:none;paint-order:stroke fill markers"
         id="rect2"
         width="11.341673"
         height="11.664324"
         x="0.78516358"
         y="108.60182"
         ry="0.10636993" /></g><path
       style="fill:#ea3e1e;fill-opacity:1;stroke-width:0.179611"
       d="m 2.7619442,120.26625 -0.7649793,-0.0102 0.014542,-1.94629 c 0.011256,-1.50342 0.029073,-1.97091 0.078304,-2.0541 0.035057,-0.0592 0.4880089,-0.52901 1.0065326,-1.0439 0.5185252,-0.51486 0.9763546,-0.99865 1.0173997,-1.07514 0.043982,-0.077 0.062125,-0.18692 0.044205,-0.2558 -0.01671,-0.0635 -0.244277,-0.32962 -0.5056624,-0.58978 -0.2613873,-0.26023 -0.4977974,-0.51491 -0.5253577,-0.5664 -0.027583,-0.0532 -0.065656,-0.36602 -0.084702,-0.6996 l -0.034581,-0.60633 0.2285293,-0.10863 c 0.4715917,-0.22034 0.7669918,-0.52849 0.9488025,-0.98942 0.085016,-0.21554 0.089953,-0.27642 0.041064,-0.50332 -0.1254412,-0.58223 -0.3801951,-0.92522 -0.843922,-1.13662 -0.7234016,-0.32984 -1.6251242,-0.0462 -1.983227,0.63239 -0.3501113,0.65964 -0.079003,1.48394 0.632276,1.92217 l 0.2505385,0.15459 0.018291,0.68989 c 0.022355,0.84133 0.059056,0.93059 0.6245139,1.51819 l 0.3931137,0.40845 -0.8331189,0.82782 c -0.4582154,0.45509 -0.9013238,0.92199 -0.9846853,1.03739 l -0.1515666,0.20995 -0.01484,2.08743 -0.014841,2.08755 H 0.91753726 c -0.34928697,0 -0.43880146,-0.0141 -0.69347212,-0.14077 -0.33955309,-0.16353 -0.67858106,-0.49241 -0.85671442,-0.8311 l -0.12511035,-0.23786 0.00131,-6.12405 c 6.22e-4,-3.3683 0.021063,-6.37188 0.045419,-6.67474 0.0378902,-0.47158 0.0634191,-0.5823 0.17735168,-0.76953 0.19324659,-0.3178 0.55356815,-0.63496 0.91759855,-0.80761 l 0.31799959,-0.15068 3.82654841,-0.0167 3.8265475,-0.0167 2.4153969,2.32639 2.415374,2.3276 v 4.93409 4.93446 l -0.1646,0.31486 c -0.199097,0.3808 -0.475317,0.66532 -0.800411,0.82393 l -0.242132,0.11801 H 9.2172309 6.4559998 v -0.92721 c 0,-0.50989 0.014643,-0.99785 0.032557,-1.08466 0.024073,-0.11634 0.1710788,-0.29393 0.5645926,-0.68204 l 0.5320222,-0.5251 h 0.5446925 0.5446901 l 0.2176592,0.29372 c 0.2308174,0.3118 0.4910728,0.51476 0.7929226,0.6186 0.2459648,0.0787 0.846288,0.0792 1.05607,1.7e-4 0.251543,-0.10526 0.652976,-0.48673 0.780746,-0.74934 0.1638,-0.33668 0.15949,-0.80416 -0.01043,-1.13265 -0.17282,-0.3342 -0.54298,-0.64417 -0.88246,-0.7393 -0.30573,-0.0806 -0.7644612,-0.0643 -1.0413695,0.0488 -0.2447062,0.10302 -0.5351049,0.36969 -0.7546396,0.70455 l -0.1925561,0.29377 -0.626144,0.0147 c -0.577385,0.0135 -0.6410711,0.0239 -0.8178042,0.14116 -0.3029622,0.19313 -1.2750739,1.1509 -1.3578593,1.33791 -0.058064,0.13103 -0.080328,0.41974 -0.098355,1.27508 l -0.023347,1.10555 -0.7198991,0.0111 -0.7198997,0.0109 3.473e-4,-1.60941 c 2.197e-4,-1.02419 0.019688,-1.67632 0.053478,-1.79375 0.04386,-0.15215 0.3128832,-0.43643 1.5375048,-1.62461 l 1.4843626,-1.44024 0.531943,-0.0398 c 0.3513864,-0.0178 0.5943843,-0.0628 0.7159054,-0.11934 0.2689633,-0.12367 0.602821,-0.4577 0.737967,-0.7374 0.3206485,-0.66362 -0.029248,-1.5685 -0.7282725,-1.88357 -0.1864138,-0.0783 -0.3263592,-0.1106 -0.6086593,-0.11092 -0.4593034,-6.1e-4 -0.7512944,0.0982 -1.0320277,0.33111 -0.5011541,0.42508 -0.629528,1.08636 -0.3385585,1.74411 l 0.1444483,0.32657 -1.4927347,1.46935 c -0.9923503,0.97685 -1.528742,1.5399 -1.6001515,1.67938 -0.1038577,0.2029 -0.1082186,0.26933 -0.1316243,2.0058 l -0.024202,1.79595 z M 12.023657,109.5715 c 0,-0.0542 -0.10102,-0.19934 -0.224491,-0.32666 l -0.224492,-0.23113 H 10.503249 9.4318205 l -0.2552977,-0.21524 c -0.1404152,-0.1182 -0.3306718,-0.31016 -0.422795,-0.42651 L 8.586232,108.1608 v -0.97751 c 0,-1.10125 -0.00208,-1.10736 -0.3863974,-1.36413 -0.1545518,-0.10648 -0.2110819,-0.1201 -0.2565286,-0.0729 -0.042554,0.0451 -0.058384,0.39858 -0.058714,1.32553 l -3.657e-4,1.26905 0.1382454,0.22658 c 0.1465884,0.24041 0.7604917,0.88974 0.9177842,0.97075 0.1841598,0.10041 0.5604064,0.1214 1.8125541,0.12637 1.249343,0.006 1.270879,0.004 1.270879,-0.0911 z m -2.1824427,7.68599 c -0.4821002,-0.31301 -0.5063287,-0.8934 -0.049658,-1.18744 0.3180907,-0.20466 0.8098667,-0.0818 1.0233827,0.24676 0.379783,0.59196 -0.38015,1.32617 -0.9738152,0.94068 z m -2.2092298,-4.27706 c -0.181986,-0.10873 -0.3791937,-0.38259 -0.4242076,-0.59303 -0.03946,-0.18444 0.054053,-0.36981 0.2856231,-0.56551 0.2991003,-0.25318 0.6945755,-0.24206 0.9607307,0.0222 0.3711194,0.37491 0.2777649,0.8834 -0.2053443,1.11845 -0.2645533,0.12867 -0.4147478,0.13211 -0.6168019,0.0106 z m -5.217162,-2.39388 c -0.5736757,-0.31303 -0.5494821,-1.01477 0.044534,-1.2918 0.2429879,-0.11455 0.3916128,-0.10589 0.6463319,0.0495 0.4939345,0.2894 0.4460234,0.98822 -0.085488,1.24673 -0.2689045,0.13055 -0.3634719,0.13028 -0.6053943,-0.002 z"
       id="path1" /></g></svg>
